REM MD5 d326e3941b657b3dd5940aef72db6b7b
FILE "Remote Control Dandy (Japan).bin" BINARY
  TRACK 01 MODE2/2352
    INDEX 01 00:00:00
  TRACK 02 AUDIO
    INDEX 00 41:21:06
    INDEX 01 41:23:06
  TRACK 03 AUDIO
    INDEX 00 42:31:65
    INDEX 01 42:33:65
  TRACK 04 AUDIO
    INDEX 00 43:38:68
    INDEX 01 43:40:68
  TRACK 05 AUDIO
    INDEX 00 45:02:23
    INDEX 01 45:04:23
REM LEADOUT 45:56:66
